HIERARCHY
ROOT Hips
{
	OFFSET 0.000000 0.000000 0.000000 
	CHANNELS 6 Xposition Yposition Zposition Zrotation Yrotation Xrotation
	JOINT LeftUpLeg
	{
		OFFSET 1.363060 -1.794630 0.839290 
		CHANNELS 3 Zrotation Yrotation Xrotation
		JOINT LeftLeg
		{
			OFFSET 2.448110 -6.726130 0.000000 
			CHANNELS 3 Zrotation Yrotation Xrotation
			JOINT LeftFoot
			{
				OFFSET 2.562200 -7.039590 0.000000 
				CHANNELS 3 Zrotation Yrotation Xrotation
				JOINT LeftToeBase
				{
					OFFSET 0.157640 -0.433110 2.322550 
					CHANNELS 3 Zrotation Yrotation Xrotation
					End Site
					{
						OFFSET 0.000000 0.000000 0.000000 
					}
				}
			}
		}
	}
	JOINT RightUpLeg
	{
		OFFSET -1.305520 -1.794630 0.839290 
		CHANNELS 3 Zrotation Yrotation Xrotation
		JOINT RightLeg
		{
			OFFSET -2.542530 -6.985550 0.000000 
			CHANNELS 3 Zrotation Yrotation Xrotation
			JOINT RightFoot
			{
				OFFSET -2.568260 -7.056230 0.000000 
				CHANNELS 3 Zrotation Yrotation Xrotation
				JOINT RightToeBase
				{
					OFFSET -0.164730 -0.452590 2.363150 
					CHANNELS 3 Zrotation Yrotation Xrotation
					End Site
					{
						OFFSET 0.000000 0.000000 0.000000 
					}
				}
			}
		}
	}
	JOINT Spine
	{
		OFFSET 0.028270 2.035590 -0.193380 
		CHANNELS 3 Zrotation Yrotation Xrotation
		JOINT Spine1
		{
			OFFSET 0.056720 2.048850 -0.042750 
			CHANNELS 3 Zrotation Yrotation Xrotation
			JOINT Neck1
			{
				OFFSET -0.054170 1.746240 0.172020 
				CHANNELS 3 Zrotation Yrotation Xrotation
				JOINT Head
				{
					OFFSET 0.104070 1.761360 -0.123970 
					CHANNELS 3 Zrotation Yrotation Xrotation
					End Site
					{
						OFFSET 0.000000 0.000000 0.000000 
					}
				}
			}
			JOINT LeftArm
			{
				OFFSET 3.362410 1.200890 -0.311210 
				CHANNELS 3 Zrotation Yrotation Xrotation
				JOINT LeftForeArm
				{
					OFFSET 4.983000 -0.000000 -0.000000 
					CHANNELS 3 Zrotation Yrotation Xrotation
					JOINT LeftHand
					{
						OFFSET 3.483560 -0.000000 -0.000000 
						CHANNELS 3 Zrotation Yrotation Xrotation
						JOINT LeftHandIndex1
						{
							OFFSET 0.715260 -0.000000 -0.000000 
							CHANNELS 3 Zrotation Yrotation Xrotation
							End Site
							{
								OFFSET 0.000000 0.000000 0.000000 
							}
						}
					}
				}
			}
			JOINT RightArm
			{
				OFFSET -3.136600 1.374050 -0.404650 
				CHANNELS 3 Zrotation Yrotation Xrotation
				JOINT RightForeArm
				{
					OFFSET -5.241900 -0.000000 -0.000000 
					CHANNELS 3 Zrotation Yrotation Xrotation
					JOINT RightHand
					{
						OFFSET -3.444170 -0.000000 -0.000000 
						CHANNELS 3 Zrotation Yrotation Xrotation
						JOINT RightHandIndex1
						{
							OFFSET -0.622530 -0.000000 -0.000000 
							CHANNELS 3 Zrotation Yrotation Xrotation
							End Site
							{
								OFFSET 0.000000 0.000000 0.000000 
							}
						}
					}
				}
			}
		}
	}
}
MOTION
Frames: 6
Frame Time: 0.041667
6.658616 26.416515 17.054196 -10.499927 33.809540 42.003077 26.589515 -38.357184 14.687945 -36.945448 -24.343795 -18.995440 34.101788 -4.562139 96.688065 0.196400 -2.853500 -7.871200 3.128160 21.163410 -72.241707 35.308110 -35.113617 11.387383 -17.453871 -39.317772 48.565514 -0.006200 -0.510000 1.401400 14.755415 -4.494493 -18.935819 -13.967930 -0.844552 -16.021407 1.349457 21.240381 9.742746 -5.266000 12.073300 13.926400 -41.686705 18.774951 79.628440 24.252586 -33.150599 -21.957625 7.537384 -9.972035 -21.736139 -7.125000 0.000000 0.000000 37.734438 -27.611652 33.703471 -2.071156 20.839235 -5.118574 3.328261 5.142772 12.422868 7.125000 0.000000 0.000000 
6.690414 26.417132 17.154527 -10.535747 34.572386 41.684869 25.818899 -40.104871 14.736884 -36.952659 -21.969347 -19.588281 35.366127 -4.524710 95.693599 0.231200 -3.094700 -8.542600 3.663768 22.188348 -71.327306 35.748018 -36.010188 9.827018 -17.696125 -39.765562 47.832151 -0.001900 -0.279300 0.767300 14.703825 -4.804580 -18.935380 -13.798017 -0.823218 -16.141349 1.370167 21.219961 9.693518 -5.257400 12.064300 13.917600 -41.968529 18.848858 79.416822 24.135570 -33.088031 -21.863331 7.654460 -9.965495 -21.941880 -7.125000 0.000000 0.000000 37.862589 -28.007604 33.431706 -2.084917 20.932246 -5.209560 3.246557 5.239071 11.942381 7.125000 0.000000 0.000000 
6.721748 26.410495 17.253007 -10.611423 35.477245 41.341576 25.226234 -41.457683 14.477845 -36.489641 -19.650537 -20.734193 36.785640 -4.165420 94.389694 0.252800 -3.234900 -8.933300 4.550622 23.236261 -70.284406 36.285997 -36.683449 8.064253 -18.084726 -40.328979 47.333679 -0.000300 -0.120400 0.330800 14.734015 -5.145508 -18.953566 -13.670973 -0.809302 -16.229073 1.408579 21.209350 9.648400 -5.211100 12.052500 13.935400 -42.235354 18.925810 79.235479 24.033742 -33.000691 -21.827330 7.692961 -9.995279 -22.293104 -7.125000 0.000000 0.000000 38.037977 -28.369014 33.217246 -2.110984 21.031858 -5.287847 3.197111 5.306528 11.477687 7.125000 0.000000 0.000000 
6.751693 26.402160 17.352875 -10.707400 36.584310 40.972093 24.416903 -42.341504 14.024812 -35.235290 -17.057310 -22.399185 38.434430 -3.267788 92.325029 0.225600 -3.057300 -8.438200 5.860127 24.254059 -69.197526 36.902706 -37.009065 6.048772 -18.651914 -41.116171 47.336577 -0.001000 0.204600 -0.562200 14.884202 -5.581115 -18.954059 -13.593767 -0.802865 -16.281108 1.442229 21.196908 9.582353 -5.202000 12.045400 13.938500 -42.390119 18.945361 79.100471 23.724057 -32.759539 -21.623993 7.640721 -9.937805 -22.454078 -7.125000 0.000000 0.000000 38.302563 -28.673004 33.022010 -2.133169 21.119844 -5.345952 3.137028 5.358247 11.055711 7.125000 0.000000 0.000000 
6.781330 26.390274 17.453361 -11.052576 37.791680 40.544223 24.114103 -42.754253 13.757015 -34.395223 -14.516663 -23.968052 39.807567 -2.420063 90.514402 0.233700 -3.111500 -8.589300 7.559582 25.001720 -68.026425 37.279807 -37.160062 4.030871 -19.228970 -42.050665 47.618907 -0.003600 0.387500 -1.064700 15.193289 -6.100887 -18.881964 -13.474310 -0.773659 -16.339321 1.480673 21.203559 9.517229 -5.196700 12.048000 13.943500 -42.666805 18.969077 78.857746 23.458569 -32.556879 -21.509712 7.622628 -9.920559 -22.743825 -7.125000 0.000000 0.000000 38.497713 -28.940135 32.962495 -2.177201 21.222003 -5.407493 3.072048 5.433178 10.665042 7.125000 0.000000 0.000000 
6.810194 26.379624 17.552149 -11.387217 38.891313 40.098179 23.825067 -42.993980 13.396733 -33.505665 -11.177169 -25.439014 41.329971 -1.407654 88.153754 0.239900 -3.151900 -8.702000 8.992158 25.547413 -67.228891 37.275002 -37.122587 2.423433 -19.631881 -42.951288 48.356538 -0.006100 0.503700 -1.383900 15.409806 -6.528320 -18.762979 -13.471956 -0.706394 -16.437167 1.505419 21.162355 9.451902 -5.221200 12.036700 13.954500 -42.684522 18.979324 78.734591 23.168195 -32.365368 -21.433464 7.661531 -9.926172 -22.988479 -7.125000 0.000000 0.000000 38.863667 -29.222860 32.793509 -2.240559 21.330236 -5.468061 3.014244 5.466883 10.422502 7.125000 0.000000 0.000000 
